<svg xmlns="http://www.w3.org/2000/svg" xmlns:xlink="http://www.w3.org/1999/xlink" viewBox="0 0 33.33676 37.27778"><defs><style>.cls-1{fill:url(#linear-gradient);}.cls-2{fill:url(#linear-gradient-2);}.cls-3{fill:url(#linear-gradient-3);}.cls-4{fill:url(#linear-gradient-4);}.cls-5{fill:url(#linear-gradient-5);}.cls-6{fill:url(#linear-gradient-6);}</style><linearGradient id="linear-gradient" x1="25.70943" y1="-7.24473" x2="25.17053" y2="31.34804" gradientUnits="userSpaceOnUse"><stop offset="0" stop-color="#067dbd"/><stop offset="0.66804" stop-color="#60b1be"/><stop offset="1" stop-color="#8eccbf"/></linearGradient><linearGradient id="linear-gradient-2" x1="25.67489" y1="-6.26035" x2="25.16458" y2="30.28524" xlink:href="#linear-gradient"/><linearGradient id="linear-gradient-3" x1="25.82312" y1="-7.55065" x2="25.28422" y2="31.04212" xlink:href="#linear-gradient"/><linearGradient id="linear-gradient-4" x1="8.37499" y1="-9.02763" x2="7.83609" y2="29.56517" xlink:href="#linear-gradient"/><linearGradient id="linear-gradient-5" x1="8.37003" y1="-7.17138" x2="7.85972" y2="29.3742" xlink:href="#linear-gradient"/><linearGradient id="linear-gradient-6" x1="8.2613" y1="-8.7217" x2="7.7224" y2="29.87109" xlink:href="#linear-gradient"/></defs><g id="Layer_2" data-name="Layer 2"><g id="Layer_1-2" data-name="Layer 1"><path class="cls-1" d="M33.33256,15.59292q.06162-4.70289-.78114-6.30749a9.65349,9.65349,0,0,0-3.62929-2.84215Q17.66607.0002,17.66624,0q.03434,5.29964.03417,5.29939,5.17638,2.95473,7.65166,4.36784c2.74248,1.56517,7.09118,3.6826,7.98049,5.92569Z"/><path class="cls-2" d="M29.23935,30.5966q-11.50523,6.68148-11.50507,6.68118V24.21005q7.63221-4.3483,7.63221-4.348a25.55017,25.55017,0,0,1,4.88943,2.87351c3.51766,2.77851,3.37977,5.6376-1.01657,7.86135Z"/><path class="cls-3" d="M33.33256,23.42891q.06162-4.70289-.78114-6.30749a9.65738,9.65738,0,0,0-3.62929-2.84255Q17.66607,7.83625,17.66624,7.836q.03434,5.29949.03417,5.29939,5.17638,2.95473,7.65166,4.36754c2.74248,1.56537,7.09118,3.6828,7.98049,5.926Z"/><path class="cls-4" d="M.00414,21.68446Q-.057,26.3869.78557,27.99166a9.65345,9.65345,0,0,0,3.629,2.84254q11.256,6.44309,11.25584,6.44288-.03428-5.299-.03417-5.29938-5.17638-2.95428-7.65161-4.36714C5.2421,26.04508.89375,23.92735.00414,21.68476Z"/><path class="cls-5" d="M4.09735,6.68057Q15.60258,0,15.60272,0V13.06734Q7.97051,17.41578,7.9705,17.41543a25.597,25.597,0,0,1-4.88973-2.87321C-.43693,11.76371-.299,8.90423,4.09735,6.68057Z"/><path class="cls-6" d="M.00414,13.84847Q-.057,18.55091.78557,20.15576a9.65434,9.65434,0,0,0,3.629,2.84245q11.256,6.44309,11.25584,6.443-.03428-5.29918-.03417-5.29949-5.17638-2.95413-7.65161-4.36713C5.2421,18.20909.89375,16.09136.00414,13.84887Z"/></g></g></svg>